P3
# width height
9 6
# max color value
255
# pixel colors, each triplet is a pixel color red green blue
  0  36  82     0  36  82     0  36  82
250 189  15   250 189  15   250 189  15
185  14  49   185  14  49   185  14  49
  0  36  82     0  36  82     0  36  82
250 189  15   250 189  15   250 189  15
185  14  49   185  14  49   185  14  49
  0  36  82     0  36  82     0  36  82
250 189  15   250 189  15   250 189  15
185  14  49   185  14  49   185  14  49
  0  36  82     0  36  82     0  36  82
250 189  15   250 189  15   250 189  15
185  14  49   185  14  49   185  14  49
  0  36  82     0  36  82     0  36  82
250 189  15   250 189  15   250 189  15
185  14  49   185  14  49   185  14  49
  0  36  82     0  36  82     0  36  82
250 189  15   250 189  15   250 189  15
185  14  49   185  14  49   185  14  49